<?xml version="1.0" standalone="no"?><!DOCTYPE svg PUBLIC "-//W3C//DTD SVG 1.1//EN" "http://www.w3.org/Graphics/SVG/1.1/DTD/svg11.dtd"><svg t="1578727238905" class="icon" viewBox="0 0 1024 1024" version="1.1" xmlns="http://www.w3.org/2000/svg" p-id="5351" xmlns:xlink="http://www.w3.org/1999/xlink" width="32" height="32"><defs><style type="text/css"></style></defs><path d="M999.15093333 997.57321482H648.6546963v-77.6722963h272.82394073V648.41197037h77.6722963zM99.85137778 372.67531852h-77.6722963V23.63543703h350.49623704v77.6722963H99.85137778z" p-id="5352" fill="#ffffff"></path><path d="M53.30504059 108.18294518l54.92159526-54.92159526 353.64681956 353.64681956-54.92159526 54.92159527zM562.35349333 617.21440711l54.92159526-54.92280889L991.51720297 936.53492622l-54.92159527 54.92159526zM999.15093333 374.13167408h-77.6722963V101.30773333H650.11105185v-77.6722963h349.03988148zM371.21896297 997.57321482H22.17908148V647.07697778h77.6722963v272.82394074H371.21896297z" p-id="5353" fill="#ffffff"></path><path d="M60.58196385 908.09472948L406.73826133 562.23213037l54.8985363 54.94586785L115.48292741 963.04059733zM562.38019318 406.71277511l367.72006874-367.72128236 54.9228089 54.92280888L617.30178845 461.63437037z" p-id="5354" fill="#ffffff"></path></svg>